<svg width="512" height="512" viewBox="0 0 512 512" fill="none" xmlns="http://www.w3.org/2000/svg">
<g clip-path="url(#clip0_178_5)">
<path d="M384 0H128C57.3075 0 0 57.3075 0 128V384C0 454.692 57.3075 512 128 512H384C454.692 512 512 454.692 512 384V128C512 57.3075 454.692 0 384 0Z" fill="black"/>
<path d="M268.585 309.261C268.585 320.923 265.129 332.322 258.655 342.018C252.181 351.714 242.979 359.271 232.213 363.733C221.447 368.196 209.6 369.363 198.171 367.088C186.742 364.813 176.243 359.198 168.003 350.952C159.763 342.707 154.152 332.201 151.878 320.764C149.605 309.327 150.772 297.472 155.231 286.699C159.691 275.925 167.242 266.717 176.932 260.238C186.621 253.76 198.012 250.302 209.665 250.302C225.292 250.302 240.278 256.514 251.328 267.571C262.377 278.628 268.585 293.624 268.585 309.261ZM378.086 253.751L307.383 324.503C305.172 326.715 303.93 329.716 303.93 332.845C303.93 335.974 305.172 338.975 307.383 341.188C309.594 343.401 312.593 344.644 315.72 344.644C318.847 344.644 321.846 343.401 324.057 341.188L394.76 270.436C395.855 269.341 396.723 268.04 397.316 266.609C397.908 265.177 398.213 263.643 398.213 262.094C398.213 260.544 397.908 259.01 397.316 257.579C396.723 256.147 395.855 254.846 394.76 253.751C393.665 252.655 392.366 251.786 390.935 251.193C389.505 250.6 387.971 250.295 386.423 250.295C384.875 250.295 383.342 250.6 381.911 251.193C380.481 251.786 379.181 252.655 378.086 253.751ZM347.625 235.061C348.72 233.965 349.588 232.664 350.181 231.233C350.773 229.801 351.078 228.267 351.078 226.718C351.078 225.168 350.773 223.634 350.181 222.203C349.588 220.771 348.72 219.471 347.625 218.375C346.53 217.279 345.23 216.41 343.8 215.817C342.369 215.225 340.836 214.919 339.288 214.919C337.739 214.919 336.206 215.225 334.776 215.817C333.345 216.41 332.045 217.279 330.951 218.375L295.599 253.751C293.388 255.964 292.146 258.965 292.146 262.094C292.146 265.223 293.388 268.224 295.599 270.436C297.81 272.649 300.809 273.892 303.936 273.892C307.063 273.892 310.062 272.649 312.273 270.436L347.625 235.061ZM406.544 159.415C405.45 158.319 404.15 157.449 402.719 156.856C401.289 156.262 399.755 155.957 398.207 155.957C396.658 155.957 395.125 156.262 393.694 156.856C392.264 157.449 390.964 158.319 389.87 159.415L366.302 182.999C364.091 185.212 362.849 188.213 362.849 191.342C362.849 194.471 364.091 197.472 366.302 199.685C368.513 201.897 371.512 203.141 374.639 203.141C377.766 203.141 380.765 201.897 382.976 199.685L406.544 176.101C407.64 175.006 408.509 173.705 409.102 172.274C409.695 170.842 410 169.308 410 167.758C410 166.209 409.695 164.674 409.102 163.243C408.509 161.811 407.64 160.511 406.544 159.415ZM248.464 223.269C249.558 224.365 250.858 225.235 252.288 225.828C253.719 226.422 255.252 226.727 256.801 226.727C258.349 226.727 259.883 226.422 261.313 225.828C262.744 225.235 264.043 224.365 265.138 223.269L371.192 117.141C372.287 116.046 373.156 114.745 373.748 113.314C374.341 111.882 374.646 110.348 374.646 108.798C374.646 107.249 374.341 105.715 373.748 104.283C373.156 102.852 372.287 101.551 371.192 100.456C370.098 99.3601 368.798 98.491 367.367 97.8981C365.937 97.3052 364.404 97 362.855 97C361.307 97 359.774 97.3052 358.343 97.8981C356.913 98.491 355.613 99.3601 354.518 100.456L248.464 206.583C247.368 207.678 246.499 208.979 245.906 210.41C245.313 211.842 245.008 213.376 245.008 214.926C245.008 216.476 245.313 218.01 245.906 219.442C246.499 220.873 247.368 222.174 248.464 223.269ZM267.995 367.632C252.525 383.112 231.543 391.809 209.665 391.809C187.787 391.809 166.805 383.112 151.335 367.632C135.865 352.151 127.174 331.154 127.174 309.261C127.174 287.368 135.865 266.372 151.335 250.891L273.224 128.933C274.319 127.838 275.188 126.537 275.78 125.106C276.373 123.674 276.678 122.14 276.678 120.59C276.678 119.041 276.373 117.507 275.78 116.075C275.188 114.644 274.319 113.343 273.224 112.248C272.13 111.152 270.83 110.283 269.399 109.69C267.969 109.097 266.436 108.792 264.887 108.792C263.339 108.792 261.806 109.097 260.375 109.69C258.945 110.283 257.645 111.152 256.55 112.248L134.676 234.22C124.696 244.046 116.759 255.751 111.323 268.661C105.886 281.571 103.058 295.431 103.001 309.44C102.944 323.45 105.659 337.332 110.991 350.286C116.322 363.24 124.163 375.01 134.063 384.916C143.962 394.822 155.724 402.669 168.669 408.004C181.614 413.339 195.487 416.056 209.486 415.999C223.486 415.942 237.336 413.112 250.238 407.672C263.139 402.231 274.836 394.289 284.655 384.302C286.771 382.073 287.934 379.104 287.895 376.029C287.855 372.955 286.617 370.017 284.444 367.842C282.271 365.668 279.335 364.429 276.263 364.389C273.19 364.35 270.223 365.513 267.995 367.632Z" fill="white"/>
</g>
<defs>
<clipPath id="clip0_178_5">
<rect width="512" height="512" fill="white"/>
</clipPath>
</defs>
</svg>
